<svg t="1645784630599" class="icon" viewBox="0 0 1024 1024" version="1.1" xmlns="http://www.w3.org/2000/svg" p-id="2516" width="25" height="25"><path d="M857.4 419c-1.6-51.1-43.5-92-94.9-92-14.4 0-28.1 3.2-40.3 9-15.3-31.9-47.9-54-85.7-54-24.2 0-46.2 9-63 23.9-16.8-14.9-38.8-23.9-63-23.9-10.9 0-21.3 1.8-31 5.2V160c0-52.5-42.5-95-95-95s-95 42.5-95 95v317.6l-32-32c-37.2-36.4-96.8-36.2-133.6 0.7-36.9 36.9-37.2 96.5-0.8 133.7 0 0 217 261.7 247.8 293.1 51.5 52.4 123.2 84.9 202.6 84.9 155.5 0 281.8-125 283.9-280h0.1l-0.1-259z" fill="#2c2c2c" p-id="2517"></path><path d="M793.4 678c-2.1 119.7-99.8 216-219.9 216-64.8 0-123.1-28-163.4-72.7-1.3-1.4-241-285.8-241-285.8-12.1-12.1-12.1-31.8 0-43.8 12.1-12.1 31.8-12.1 43.8 0l63.5 63.5 25.9 25.9c18.8 18.8 51.1 5.5 51.1-21.1V160.7c0-16.9 13.2-31.2 30.1-31.6 17.5-0.5 31.9 13.6 31.9 31V512h64V377.7c0-16.9 13.2-31.2 30.1-31.6 17.5-0.5 31.9 13.6 31.9 31V512h64V377.7c0-16.9 13.2-31.2 30.1-31.6 17.5-0.5 31.9 13.6 31.9 31V512h64v-89.3c0-16.9 13.2-31.2 30.1-31.6 17.5-0.5 31.9 13.6 31.9 31V678z" fill="#FFFFFF" p-id="2518"></path></svg>
